<svg width="207" height="207" xmlns="http://www.w3.org/2000/svg" xmlns:xlink="http://www.w3.org/1999/xlink" xml:space="preserve" overflow="hidden"><g transform="translate(-44 -2027)"><path d="M147.5 2038.82C197.998 2038.82 239.183 2080 239.183 2130.5 239.183 2181 197.998 2222.18 147.5 2222.18 97.0036 2222.18 55.8171 2181 55.8171 2130.5 55.8171 2080 97.0036 2038.82 147.5 2038.82L147.5 2038.82ZM147.5 2042.47C99.0154 2042.47 59.4707 2082.01 59.4707 2130.5 59.4707 2178.98 99.0154 2218.53 147.5 2218.53 195.986 2218.53 235.531 2178.98 235.531 2130.5 235.531 2082.01 195.986 2042.47 147.5 2042.47L147.5 2042.47Z" fill="#004EA2"/><path d="M115.297 2169.57C109.557 2164.83 104.871 2158.85 101.655 2152.05 98.5587 2145.5 96.8264 2138.19 96.8264 2130.5 96.8264 2102.59 119.59 2079.83 147.5 2079.83 175.409 2079.83 198.172 2102.59 198.172 2130.5 198.172 2138.19 196.439 2145.5 193.344 2152.05 190.129 2158.85 185.443 2164.83 179.701 2169.57L178.54 2168.17C184.077 2163.59 188.597 2157.83 191.697 2151.27 194.678 2144.97 196.347 2137.92 196.347 2130.5 196.347 2103.6 174.405 2081.65 147.501 2081.65 120.596 2081.65 98.6545 2103.6 98.6545 2130.5 98.6545 2137.92 100.323 2144.97 103.304 2151.27 106.403 2157.83 110.923 2163.59 116.46 2168.17L115.297 2169.57 115.297 2169.57Z" fill="#004EA2"/><path d="M147.807 2177.29 137.429 2161.46C140.616 2159.82 140.221 2154.7 137.492 2154.28 134.453 2153.8 132.033 2153.66 129.901 2148.88L134.845 2148.88 133.327 2144.73C127.671 2145.23 126.517 2143.66 123.835 2139.24L130.9 2139 129.472 2135.39C121.772 2135.75 119.741 2133.86 117.819 2129.48L126.79 2129.16 124.848 2124.87C115.661 2125.13 113.716 2124.87 110.347 2118.65L121.76 2118.6 120.15 2114.51C109.748 2114.96 107.151 2113.94 104.206 2108.74L127.587 2108.15C130.994 2108.06 134.885 2110.38 136.318 2113.48L139.129 2119.54 142.088 2109.33C143.614 2104.07 155.11 2105.98 158.81 2109.48L151.856 2111.99 155.259 2120.28C157.725 2114.51 160.745 2108.15 167.245 2108.15L190.182 2108.15C188.417 2113.21 184.157 2115.74 174.896 2114.1L173.269 2118.39 184.707 2118.36C181.969 2124.74 178.932 2125.54 170.424 2124.57L168.648 2128.86 177.753 2129.16C176.001 2133.2 172.83 2135.62 165.801 2134.78L164.321 2138.96 171.572 2138.92C169.494 2144.01 168.152 2145.14 161.544 2144.84L160.029 2148.99 165.252 2149.01C163.056 2153.43 162.405 2153.95 157.719 2154.37 154.934 2154.62 153.692 2159.08 157.401 2161.72L147.807 2177.29 147.807 2177.29Z" fill="#004EA2" fill-rule="evenodd"/><path d="M68.9888 2161.1 65.5319 2151.83 67.4208 2151.17 83.2666 2153.59 80.8421 2147.08 82.731 2146.42 85.8955 2154.92 84.0079 2155.58 68.1621 2153.16 70.8764 2160.45 68.9888 2161.1Z" fill="#004EA2" fill-rule="evenodd"/><path d="M75.0228 2173.75 74.068 2171.9 81.5213 2168.07 79.1577 2163.47 71.7044 2167.3 70.7496 2165.45 86.6821 2157.25 87.6369 2159.11 80.9262 2162.56 83.2912 2167.16 90.0019 2163.7 90.9541 2165.56 75.0228 2173.75Z" fill="#004EA2" fill-rule="evenodd"/><path d="M82.5796 2183.85 76.9195 2175.94 91.8623 2166.66 97.2469 2174.18 95.587 2175.21 91.478 2169.47 86.8438 2172.35 90.619 2177.62 88.9604 2178.65 85.1852 2173.38 79.8537 2176.69 84.2395 2182.82 82.5796 2183.85Z" fill="#004EA2" fill-rule="evenodd"/><path d="M95.2778 2196.27 93.3811 2194.67 104.379 2181.16 106.277 2182.76 95.2778 2196.27Z" fill="#004EA2" fill-rule="evenodd"/><path d="M103.796 2202.22 106.05 2197.43 103.318 2195.45 99.2522 2199.41 97.3957 2197.98 110.288 2185.24 112.874 2186.82 106.007 2203.47 103.796 2202.22 103.796 2202.22ZM107.09 2195.09 109.778 2188.92 109.53 2188.71 104.881 2193.44 107.09 2195.09 107.09 2195.09Z" fill="#004EA2" fill-rule="evenodd"/><path d="M116.719 2208.47 114.39 2207.39 115.749 2194.95 110.657 2205.41 108.333 2204.34 116.414 2188.33 118.512 2189.31 117.537 2201.12 122.789 2191.37 124.744 2192.18 116.719 2208.47Z" fill="#004EA2" fill-rule="evenodd"/><path d="M128.751 2212.06 127.249 2211.57 127.387 2210.16C127.037 2210.46 126.57 2210.65 125.99 2210.74 125.409 2210.83 124.828 2210.78 124.238 2210.59 122.996 2210.18 122.079 2209.21 121.487 2207.66 120.891 2206.12 121.009 2203.99 121.842 2201.29 122.754 2198.33 123.875 2196.27 125.207 2195.11 126.537 2193.96 128.561 2193.31 130.35 2193.89 132.276 2194.5 133.526 2196.87 132.972 2200.15L130.672 2199.96C131.069 2198.56 130.868 2196.36 129.496 2195.92 128.385 2195.56 127.139 2195.9 126.347 2196.78 125.554 2197.67 124.783 2199.34 124.026 2201.79 123.309 2204.12 123.11 2205.82 123.427 2206.89 123.744 2207.97 124.29 2208.63 125.055 2208.88 125.822 2209.13 126.518 2209.03 127.145 2208.57 127.77 2208.12 128.28 2207.26 128.667 2206.01L128.988 2204.97 126.245 2204.07 126.797 2202.28 131.31 2203.75 128.751 2212.06 128.751 2212.06Z" fill="#004EA2" fill-rule="evenodd"/><path d="M152.586 2208.11C152.534 2209.72 152.102 2210.99 151.295 2211.9 150.486 2212.81 149.239 2213.24 147.556 2213.17 145.874 2213.11 144.656 2212.59 143.91 2211.62 143.163 2210.65 142.813 2209.36 142.866 2207.74L143.26 2195.54 145.411 2195.62 145.016 2207.82C144.978 2208.97 145.202 2209.82 145.684 2210.37 146.165 2210.93 146.81 2211.23 147.619 2211.26 148.429 2211.29 149.091 2211.04 149.608 2210.52 150.122 2210 150.401 2209.18 150.438 2208.03L150.834 2195.82 152.983 2195.9 152.586 2208.11 152.586 2208.11Z" fill="#004EA2" fill-rule="evenodd"/><path d="M164.817 2211.37 162.9 2211.66 156.855 2200.01 157.779 2212.52 155.501 2212.84 154.163 2195.31 156.785 2195.06 161.77 2203.23 160.845 2194.44 162.748 2194.11 164.817 2211.37Z" fill="#004EA2" fill-rule="evenodd"/><path d="M171.367 2209.53 169.119 2210.21 164.444 2193.62 166.693 2192.93 171.367 2209.53Z" fill="#004EA2" fill-rule="evenodd"/><path d="M177.432 2188.5 180.275 2206.82 178.057 2207.92 168.35 2192.36 170.486 2191.46 177.233 2202.07 175.362 2189.4 177.432 2188.5Z" fill="#004EA2" fill-rule="evenodd"/><path d="M195.461 2198.89 187.269 2203.31 178.349 2188 186.14 2183.79 187.131 2185.49 181.187 2188.7 183.953 2193.45 189.414 2190.5 190.405 2192.2 184.941 2195.15 188.124 2200.61 194.471 2197.19 195.461 2198.89Z" fill="#004EA2" fill-rule="evenodd"/><path d="M204.794 2192.34 202.992 2193.88 196.643 2188.62 195.001 2190.11 199.291 2195.94 197.491 2197.83 186.983 2183.08 190.332 2180.68C191.403 2179.91 192.811 2179.36 194.079 2179.51 197.351 2179.9 198.749 2182.11 198.599 2184.67 198.553 2185.48 198.506 2186.27 198.189 2187.07L204.794 2192.34 204.794 2192.34ZM193.471 2181.95C192.137 2181.59 191.086 2182.62 190.126 2183.37L193.618 2187.98C194.686 2187.21 195.182 2187.04 195.99 2185.65 196.339 2183.98 195.591 2182.53 193.471 2181.95L193.471 2181.95Z" fill="#004EA2" fill-rule="evenodd"/><path d="M210.462 2178.1C214.124 2180.3 213.27 2186.54 208.456 2187.27 207.161 2187.47 205.639 2187.08 204.984 2186.66L205.807 2184.79C206.6 2184.97 207.403 2185.26 208.164 2185.11 211.283 2184.52 211.146 2181.28 209.327 2179.94 208.693 2179.47 207.786 2179.41 207.036 2179.49 204.931 2179.73 203.583 2181.3 201.241 2181.44 198.681 2181.61 196.898 2180.04 196.48 2177.55 196.259 2176.23 196.575 2174.95 197.23 2173.92 198.585 2171.8 201.46 2171.51 203.554 2172.75L202.739 2174.68C201.607 2174.07 199.597 2174.08 198.84 2175.26 198.445 2175.88 198.308 2176.51 198.427 2177.16 198.69 2178.57 199.651 2179.38 201.006 2179.22 203.279 2178.94 204.816 2177.07 207.053 2177.15 208.119 2177.18 209.383 2177.45 210.462 2178.1L210.462 2178.1Z" fill="#004EA2" fill-rule="evenodd"/><path d="M218.188 2175.82 216.868 2177.44 201.766 2167.97 203.086 2166.35 218.188 2175.82Z" fill="#004EA2" fill-rule="evenodd"/><path d="M210.565 2156.72 208.894 2159.82 223.157 2168.21 222.196 2169.99 207.934 2161.6 206.262 2164.7 204.481 2163.65 208.784 2155.67 210.565 2156.72Z" fill="#004EA2" fill-rule="evenodd"/><path d="M213.181 2144.94 221.88 2152.71 227.689 2155.2 226.982 2157.16 221.6 2155.08 209.209 2154.79 209.804 2152.8 218.451 2152.94 212.329 2147.31 213.181 2144.94Z" fill="#004EA2" fill-rule="evenodd"/><path d="M93.9452 2188.47C92.407 2190 90.9696 2190.79 89.637 2190.84 88.3045 2190.88 87.0987 2190.35 86.0132 2189.25 85.0248 2188.24 84.5358 2187.07 84.5474 2185.73 84.5526 2185.05 84.7505 2184.35 85.1374 2183.63L87.0961 2184.83C86.9292 2185.17 86.8412 2185.49 86.8335 2185.8 86.8141 2186.53 87.0392 2187.14 87.5088 2187.62 88.1699 2188.29 88.8634 2188.59 89.5892 2188.53 90.3163 2188.47 91.1999 2187.93 92.2439 2186.89L100.952 2178.27 102.577 2179.92 93.9452 2188.47 93.9452 2188.47Z" fill="#004EA2" fill-rule="evenodd"/><path d="M123.576 2185.45 117.471 2181.66 118.024 2180.7 120.291 2182.11 123.923 2175.79 121.653 2174.38 122.148 2173.52C123.007 2174.05 123.69 2174.36 124.202 2174.42 124.711 2174.49 125.14 2174.29 125.487 2173.81L126.788 2174.61 121.911 2183.11 124.127 2184.48 123.576 2185.45 123.576 2185.45ZM141.782 2181.59C141.879 2181.1 141.71 2180.67 141.274 2180.27 140.833 2179.88 140.168 2179.62 139.274 2179.49 138.454 2179.38 137.759 2179.43 137.178 2179.65 136.595 2179.87 136.255 2180.22 136.154 2180.72 136.08 2181.08 136.154 2181.4 136.37 2181.68 136.583 2181.97 136.938 2182.24 137.429 2182.52 137.648 2182.63 137.977 2182.8 138.427 2183.01 138.873 2183.22 139.282 2183.39 139.659 2183.53 140.378 2183.3 140.886 2183.02 141.192 2182.72 141.494 2182.41 141.692 2182.03 141.782 2181.59L141.782 2181.59ZM140.989 2187.06C141.08 2186.61 141.016 2186.24 140.802 2185.94 140.581 2185.64 140.115 2185.3 139.397 2184.92 139.16 2184.8 138.841 2184.65 138.441 2184.48 138.039 2184.32 137.586 2184.12 137.083 2183.9 136.409 2184.09 135.864 2184.35 135.455 2184.69 135.044 2185.03 134.789 2185.46 134.689 2185.96 134.556 2186.62 134.754 2187.19 135.278 2187.7 135.802 2188.21 136.526 2188.54 137.45 2188.66 138.395 2188.8 139.188 2188.72 139.829 2188.43 140.476 2188.14 140.862 2187.69 140.989 2187.06L140.989 2187.06ZM137.204 2189.74C136.372 2189.63 135.63 2189.44 134.979 2189.19 134.328 2188.93 133.795 2188.63 133.375 2188.25 132.963 2187.9 132.676 2187.51 132.513 2187.07 132.35 2186.64 132.315 2186.2 132.403 2185.75 132.525 2185.16 132.874 2184.66 133.46 2184.23 134.042 2183.81 134.824 2183.52 135.806 2183.35L135.815 2183.31C135.052 2182.88 134.511 2182.46 134.185 2182.04 133.865 2181.61 133.759 2181.13 133.872 2180.58 134.037 2179.75 134.653 2179.14 135.713 2178.73 136.777 2178.32 138.041 2178.22 139.503 2178.42 141.031 2178.63 142.2 2179.06 143.011 2179.71 143.824 2180.35 144.149 2181.08 143.987 2181.88 143.889 2182.36 143.573 2182.81 143.038 2183.23 142.498 2183.64 141.792 2183.93 140.91 2184.07L140.903 2184.12C141.818 2184.55 142.487 2185.01 142.903 2185.51 143.324 2186 143.462 2186.58 143.326 2187.23 143.137 2188.16 142.462 2188.87 141.294 2189.35 140.127 2189.83 138.763 2189.96 137.204 2189.74L137.204 2189.74ZM158.324 2183.05C158.324 2182.31 158.22 2181.7 158.017 2181.23 157.81 2180.76 157.525 2180.4 157.162 2180.15 156.842 2179.91 156.514 2179.74 156.182 2179.65 155.85 2179.57 155.486 2179.52 155.087 2179.52 154.181 2179.52 153.459 2179.74 152.923 2180.17 152.381 2180.61 152.115 2181.23 152.115 2182.05 152.115 2182.52 152.2 2182.89 152.379 2183.19 152.556 2183.49 152.842 2183.75 153.246 2183.97 153.521 2184.12 153.841 2184.22 154.193 2184.28 154.543 2184.33 154.925 2184.35 155.328 2184.35 155.798 2184.35 156.312 2184.29 156.853 2184.19 157.401 2184.07 157.873 2183.93 158.28 2183.75 158.289 2183.67 158.302 2183.58 158.309 2183.45 158.321 2183.34 158.324 2183.2 158.324 2183.05L158.324 2183.05ZM149.873 2182.11C149.873 2181.54 150.011 2181.03 150.283 2180.57 150.562 2180.09 150.938 2179.69 151.42 2179.35 151.873 2179.03 152.432 2178.78 153.095 2178.59 153.755 2178.41 154.42 2178.32 155.102 2178.32 155.859 2178.32 156.546 2178.41 157.159 2178.58 157.775 2178.74 158.307 2178.99 158.756 2179.31 159.324 2179.71 159.762 2180.24 160.077 2180.89 160.387 2181.55 160.546 2182.37 160.546 2183.37 160.546 2184.28 160.394 2185.14 160.086 2185.95 159.782 2186.77 159.334 2187.44 158.736 2187.97 158.104 2188.54 157.343 2188.98 156.454 2189.28 155.564 2189.58 154.468 2189.73 153.163 2189.73 152.87 2189.73 152.556 2189.72 152.225 2189.7 151.894 2189.67 151.583 2189.63 151.295 2189.57L151.295 2188.16 151.407 2188.16C151.592 2188.24 151.878 2188.31 152.271 2188.37 152.659 2188.43 153.058 2188.46 153.462 2188.46 154.905 2188.46 156.041 2188.15 156.865 2187.51 157.691 2186.87 158.158 2185.97 158.268 2184.79 157.679 2185.06 157.119 2185.25 156.586 2185.38 156.048 2185.5 155.468 2185.56 154.843 2185.56 154.23 2185.56 153.678 2185.51 153.174 2185.42 152.674 2185.34 152.168 2185.16 151.662 2184.91 151.069 2184.61 150.626 2184.23 150.324 2183.77 150.023 2183.31 149.873 2182.76 149.873 2182.11L149.873 2182.11ZM173.807 2172.73 173.405 2184.05 171.67 2185.14 171.824 2174.44 165.213 2177.65 164.631 2176.38 172.943 2172.06 173.807 2172.73 173.807 2172.73Z" fill="#004EA2" fill-rule="evenodd"/><path d="M182.119 2086.18C180.898 2085.36 181.861 2085.26 182.107 2084.03 182.317 2082.98 181.81 2081.65 182.129 2080.93 182.989 2078.99 185.466 2080.13 186.745 2081.36 186.972 2081.58 187.129 2082.13 187.248 2082.64 187.543 2083.94 187.783 2085.73 186.25 2086.41 184.928 2087 183.182 2086.9 182.119 2086.18L182.119 2086.18Z" fill="#004EA2" fill-rule="evenodd"/><path d="M167.729 2078.06C167.693 2078.03 167.655 2077.99 167.619 2077.96 167.689 2077.81 167.758 2077.66 167.821 2077.54 168.301 2077.55 172.886 2076.62 172.918 2076.52 174.316 2076.11 175.639 2075.54 176.484 2074.31 173.535 2074.12 170.309 2075.03 167.529 2074.15 166.399 2073.34 165.814 2072.32 165.089 2071.59 165.111 2071.53 165.122 2071.49 165.136 2071.44 164.083 2069.94 164.43 2068.69 166.21 2068.8 168.686 2070.49 173.622 2070.2 176.569 2070.25 177.245 2070.23 179.133 2070.3 179.791 2069.96 181.824 2066.61 182.867 2062.85 184.448 2059.51 186.315 2057.38 187.323 2059.83 188.226 2061.54 188.341 2061.75 188.511 2062.15 188.633 2062.74 188.677 2062.76 189.018 2064.63 187.622 2065.19 186.269 2066.6 185.195 2068.34 184.5 2070.32 186.473 2070.8 188.254 2069.62 190.429 2070.45 190.55 2071.66 190.145 2072.48 188.855 2072.94 186.977 2073.06 184.998 2073.06 182.889 2073.16 181.748 2074.8 180.143 2076.73 178.281 2077.69 178.009 2077.84 176.744 2078.32 176.47 2078.37 175.043 2078.58 173.675 2078.98 172.264 2078.83 168.371 2078.4 168.393 2078.22 167.729 2078.06L167.729 2078.06Z" fill="#004EA2" fill-rule="evenodd"/><path d="M121.835 2084.4C120.229 2084.11 118.477 2082.72 117.423 2081.84 117.453 2081.43 117.484 2081.01 117.543 2080.61 120.256 2077.2 122.985 2073.97 125.253 2070.16 125.806 2068.49 126.627 2066.69 127.253 2065.02 127.289 2064.98 127.376 2064.81 127.361 2064.77 128.05 2063.87 128.367 2063.6 129.386 2064.51 129.685 2065.42 128.2 2066.82 127.99 2067.84 127.625 2069.64 126.663 2074.17 125.993 2075.89 125.564 2076.99 123.734 2083.1 122.621 2084.09 122.339 2084.18 122.086 2084.29 121.835 2084.4L121.835 2084.4Z" fill="#004EA2" fill-rule="evenodd"/><path d="M138.664 2067.35C136.56 2067.8 135.621 2066.63 134.169 2065.71 133.991 2065.17 134.238 2064.76 134.181 2064.37 134.671 2064.11 136.107 2063.44 137.037 2063.14 138.163 2062.55 140.679 2059.64 141.945 2060.28 142.764 2062.77 140.678 2066.04 138.664 2067.35L138.664 2067.35Z" fill="#004EA2" fill-rule="evenodd"/><path d="M121.633 2067.54C120.655 2067.04 119.66 2063.87 119.331 2062.88 119.454 2060.92 121.242 2060.38 123.053 2061.15 124.669 2062.42 125.654 2062.86 124.881 2065.03 123.782 2066.64 123.168 2066.89 121.633 2067.54L121.633 2067.54Z" fill="#004EA2" fill-rule="evenodd"/><path d="M136.647 2061.95C136.175 2061.03 136.977 2058.58 136.459 2058.18 135.975 2058.38 135.507 2058.71 134.987 2058.88 133.577 2058.6 131.803 2057.43 131.994 2056.12 132.648 2054.83 132.358 2055.19 133.786 2054.72 135 2053.74 136.22 2052.79 137.463 2051.83 139.684 2050.79 141.092 2051.79 141.832 2054.04 141.805 2055.63 141.122 2057.05 140.461 2058.47 139.399 2059.46 138.472 2060.51 137.539 2061.54 137.224 2061.66 136.935 2061.81 136.647 2061.95L136.647 2061.95Z" fill="#004EA2" fill-rule="evenodd"/><path d="M122.141 2058.67C121.537 2058.36 121.683 2058.08 121.828 2057.57 121.515 2056.62 120.732 2055.99 120.433 2055.08 120.303 2053.3 119.816 2052.77 121.009 2051.59 122.225 2051.78 126.543 2052.74 126.195 2055.11 125.497 2056.7 123.606 2058.09 122.141 2058.67L122.141 2058.67Z" fill="#004EA2" fill-rule="evenodd"/><path d="M92.777 2122.76C90.9347 2124.15 87.2656 2123.27 86.6938 2120.78 86.2901 2119.02 84.0584 2114.07 83.1049 2111.39 82.6249 2110.56 82.0673 2109.92 82.3765 2108.97 82.9949 2108.79 83.7246 2109.45 84.277 2109.96 84.5552 2109.88 84.986 2109.19 84.9524 2108.72 84.8139 2106.77 84.7415 2104.64 84.3922 2102.71 83.8863 2102.3 83.3818 2101.9 82.9069 2101.48 82.577 2102.47 81.4618 2105.7 80.2987 2104.03 80.5497 2102.71 80.6481 2100.54 79.8679 2099.26 78.8847 2098.25 77.5017 2097.6 77.0411 2096.5 77.1692 2094.93 79.5484 2094.47 80.9767 2095.04 82.1165 2095.09 82.0078 2092.95 83.4335 2096.43 83.484 2097 84.0532 2097.34 84.6949 2097.63 84.7906 2097.51 84.8877 2097.38 84.9847 2097.25 84.8954 2095.75 84.801 2094.11 84.8683 2092.52 83.4089 2091.15 82.185 2090.01 81.2872 2088.33 81.2238 2086.69 83.0531 2085.66 84.6535 2085.11 85.1438 2084.21 85.1206 2083.45 85.039 2082.31 85.1335 2081.95 85.1335 2081.95 85.5009 2081.37 86.0611 2081.39 86.5333 2081.57 87.1724 2081.92 88.5205 2083.54 86.0223 2088.74 88.58 2089.04 89.06 2088.16 88.3161 2087.29 87.8931 2086.59 87.9888 2085.32 89.8828 2083.65 91.2361 2083.12 93.2738 2082.86 93.1923 2084.01 93.2712 2085.76 93.376 2086 93.4782 2086.24 93.5933 2086.46 96.2507 2088.24 96.2507 2088.24 99.9392 2090.52 101.085 2091.5 101.21 2093.14 101.326 2093.63 101.4 2093.95 101.934 2096.27 100.735 2096.47 97.7139 2094.59 94.7021 2092.46 91.7678 2090.75 91.7355 2090.81 91.7226 2090.88 91.72 2090.93 93.0448 2092.07 94.8767 2095.28 94.9945 2097.11 94.3398 2098.3 93.0577 2098.85 91.8649 2098.56 91.6411 2098.26 91.7122 2097.99 91.654 2097.62 90.729 2096.13 88.1479 2094.77 86.8322 2093.95 86.3781 2094.97 87.5062 2097.9 87.8607 2099.1 87.937 2099.82 88.0134 2100.53 88.1001 2101.23 89.0109 2102.27 89.9449 2103.22 90.9567 2104.27 91.3331 2104.86 91.729 2105.47 92.1249 2106.07 92.0926 2106.13 92.0706 2106.17 92.0486 2106.21 92.5156 2107.12 93.5623 2109.76 91.8067 2109.84 91.6268 2109.75 91.4664 2109.66 91.3176 2109.55 90.7147 2108.18 89.5943 2106.72 88.4093 2105.94 88.0638 2107.34 88.6085 2108.81 87.9797 2109.96 87.5955 2110.66 86.8399 2111.01 86.303 2111.24 85.7338 2111.48 85.3728 2111.6 85.3353 2111.81 85.8528 2112.43 86.4454 2113.02 86.9396 2113.67 88.9061 2116.28 90.5763 2118.85 92.821 2121.34 92.9865 2122.05 92.9594 2122.24 92.777 2122.76L92.777 2122.76Z" fill="#004EA2" fill-rule="evenodd"/><path d="M79.8718 2111.47C79.1266 2111.51 78.7204 2110.64 78.133 2110.24 76.0721 2109.74 74.526 2109.38 73.7705 2107.39 73.8494 2107.2 73.9464 2107.02 74.0448 2106.84 75.0901 2106.4 77.0579 2106.07 78.3866 2105.97 80.9379 2106.42 80.2017 2109.63 79.8718 2111.47L79.8718 2111.47Z" fill="#004EA2" fill-rule="evenodd"/><path d="M74.31 2105.69C73.8895 2106.03 73.8002 2105.96 73.5971 2105.95 73.3086 2105.48 73.1883 2105.13 72.7161 2104.95 70.4624 2104.99 68.0638 2103.4 68.3911 2101.09 68.7857 2100.6 69.2333 2100.87 70.1027 2101.09 71.9838 2100.63 74.7667 2099.33 75.0086 2102.38 74.8456 2103.49 74.5519 2104.63 74.31 2105.69L74.31 2105.69Z" fill="#004EA2" fill-rule="evenodd"/><path d="M202.985 2100.04C202.02 2098.23 204.541 2096.2 205.688 2095.51 207.342 2095.86 207.35 2098.52 206.245 2099.79 204.689 2100.85 204.509 2101.06 202.985 2100.04L202.985 2100.04Z" fill="#004EA2" fill-rule="evenodd"/><path d="M200.11 2118.02C200.087 2117.95 200.083 2117.88 200.065 2117.83 198.174 2116.19 196.642 2114.35 195.604 2112.21 195.67 2111.99 195.67 2111.99 195.863 2111.77 197.343 2112.15 198.527 2113.6 200.216 2113.32 201.091 2112.66 201.826 2112.09 202.404 2111.36 200.531 2109.73 198.357 2110.04 196.456 2109.18 195.185 2108.07 194.122 2104.88 194.709 2103.58 196.232 2102.04 195.867 2103.05 197.619 2104.57 199.924 2106.16 202.999 2106.96 205.719 2108 206.42 2108.09 206.42 2108.09 206.736 2108.22 208.419 2107.36 208.939 2107.42 210.53 2108.47 211.306 2108.72 211.306 2108.72 213.736 2109.29 213.922 2109.18 214.107 2109.07 214.311 2108.98 211.733 2106.98 208.024 2107.01 204.964 2106.44 203.805 2105.79 203.263 2104.95 202.909 2104.04 202.449 2103.7 199.753 2101.84 201.766 2102.02 202.715 2102.43 203.717 2102.45 204.761 2102.85 207.64 2103.39 210.629 2104.36 213.556 2105.12 213.825 2104.82 213.871 2104.55 213.895 2104.42 214.289 2104.04 214.554 2103.91 214.959 2103.72 214.492 2103.49 214.418 2103.37 214.093 2103.57 212.502 2102.97 211.039 2103.51 211.158 2101.53 209.949 2102.26 208.593 2102.26 207.562 2101.36 207.072 2099.88 208.681 2098.2 209.261 2097.26 209.282 2097.09 209.776 2096.32 210.238 2095.3 210.692 2093.94 210.87 2092.11 212.238 2091.82 213.37 2092.08 213.815 2092.19 213.47 2093.73 213.598 2094.63 213.721 2096.34 213.559 2097.1 213.299 2098.34 212.849 2100.1 211.708 2101.1 212.529 2101.3 213.862 2101.44 214.128 2100.4 213.73 2099.09 215 2098.77 215.892 2099.07 216.294 2099.51 216.294 2099.51 216.892 2100 217.086 2099.78 217.069 2099.76 217.084 2099.53 216.615 2098.58 216.919 2098.54 217.682 2098.15 217.152 2097.03 217.699 2095.84 218.629 2095.54 221.642 2097.31 221.642 2097.31 223.131 2098.06 224.812 2097.87 228.159 2096.1 229.147 2098.02 229.071 2099 228.494 2100.22 227.518 2101.03 226.952 2101.23 226.375 2101.31 225.883 2101.66 226.037 2101.8 226.178 2101.95 226.317 2102.1 227.82 2102.6 228.877 2102.46 227.989 2104.55 228.447 2106.04 228.931 2106.25 227.164 2107.31 225.053 2108.03 222.782 2108.81 220.584 2109.46 220.506 2109.51 220.43 2109.57 220.37 2109.64 220.514 2109.85 220.659 2110.07 220.788 2110.3 220.259 2111.05 219.492 2111.86 218.707 2112.63 217.211 2112.92 216.448 2112.17 215.357 2111.34 213.523 2110.75 211.917 2110.16 210.077 2109.71 209.851 2109.94 209.59 2110.13 209.409 2110.55 210.013 2111.1 210.619 2111.69 211.225 2112.28 211.462 2113.36 210.218 2114.51 209.11 2114.81 208.342 2114.24 207.852 2113.93 207.062 2113.7 206.677 2113.97 206.292 2114.24 205.893 2114.52 204.688 2115.85 202.302 2119.6 200.11 2118.02L200.11 2118.02ZM219.458 2105.94C219.436 2105.86 219.417 2105.81 219.398 2105.77 220.447 2104.84 220.76 2104.48 219.674 2103.71 219.373 2103.78 218.801 2103.92 218.79 2103.55 218.777 2103.15 220.702 2102.71 220.995 2102.54 221.545 2103.02 222.351 2103.93 222.417 2104.86 221.655 2105.74 220.651 2105.92 219.458 2105.94L219.458 2105.94Z" fill="#004EA2" fill-rule="evenodd"/></g></svg>